{"title":"Teen Mom 2 - 7x11 - Turn The Page 720p WEBRIP [TANKTV]","uid":14745726,"size":944306689,"categoryP":"video","categoryS":"tv_shows","magnet":"?xt=urn:btih:c73cc941939bf382f64af383aff1508b60a759fc&amp;dn=Teen+Mom+2+-+7x11+-+Turn+The+Page+720p+WEBRIP+%5BTANKTV%5D&amp;tr=udp%3A%2F%2Ftracker.leechers-paradise.org%3A6969&amp;tr=udp%3A%2F%2Fzer0day.ch%3A1337&amp;tr=udp%3A%2F%2Fopen.demonii.com%3A1337&amp;tr=udp%3A%2F%2Ftracker.coppersurfer.tk%3A6969&amp;tr=udp%3A%2F%2Fexodus.desync.com%3A6969","seeders":1,"leechers":0,"uploader":"SPE_Tank","files":1,"time":1464724729,"description":"season 7, ep 11\r\nturn the page\r\nJenelle’s medical woes lead to a disastrous fight with Barbara. Leah and Miranda make amends. Aubree drops a big question on Adam. Kailyn rebuilds her relationship with Jo but distances herself from Javi.\r\n\r\naired 05/30/2016 · 40:50\r\n\r\n\r\nMediainfo:\r\nFormat : MPEG-4\r\nFormat profile : Base Media\r\nCodec ID : isom (isom/iso2/avc1/mp41)\r\nFile size : 901 MiB\r\nDuration : 40mn 50s\r\nOverall bit rate : 3 083 Kbps\r\nWriting application : Lavf57.34.103\r\n\r\nVideo\r\nID : 1\r\nFormat : AVC\r\nFormat/Info : Advanced Video Codec\r\nFormat profile :   \r\nFormat settings, CABAC : Yes\r\nFormat settings, ReFrames : 4 frames\r\nCodec ID : avc1\r\nCodec ID/Info : Advanced Video Coding\r\nDuration : 40mn 50s\r\nBit rate : 2 950 Kbps\r\nWidth : 1 280 pixels\r\nHeight : 720 pixels\r\nDisplay aspect ratio : 16:9\r\nFrame rate mode : Variable\r\nFrame rate : 23.976 (23976/1000) fps\r\nMinimum frame rate : 11.690 fps\r\nMaximum frame rate : 23.976 fps\r\nColor space : YUV\r\nChroma subsampling : 4:2:0\r\nBit depth : 8 bits\r\nScan type : Progressive\r\nBits/(Pixel*Frame) : 0.134\r\nStream size : 862 MiB (96%)\r\nWriting library : x264 core 148\r\nEncoding settings : cabac=1 / ref=4 / deblock=1:0:0 / analyse=0x3:0x113 / me=umh / subme=10 / psy=1 / psy_rd=1.00:0.15 / mixed_ref=1 / me_range=16 / chroma_me=1 / trellis=2 / 8x8dct=1 / cqm=0 / deadzone=21,11 / fast_pskip=1 / chroma_qp_offset=-3 / threads=14 / lookahead_threads=4 / sliced_threads=0 / nr=0 / decimate=1 / interlaced=0 / bluray_compat=0 / constrained_intra=0 / bframes=3 / b_pyramid=0 / b_adapt=2 / b_bias=0 / direct=3 / weightb=1 / open_gop=0 / weightp=2 / keyint=48 / keyint_min=4 / scenecut=0 / intra_refresh=0 / rc_lookahead=48 / rc=crf / mbtree=1 / crf=19.0 / qcomp=0.75 / qpmin=10 / qpmax=51 / qpstep=4 / vbv_maxrate=3000 / vbv_bufsize=6000 / crf_max=0.0 / nal_hrd=none / filler=0 / ip_ratio=1.40 / aq=1:0.80\r\n\r\nAudio\r\nID : 2\r\nFormat : AAC\r\nFormat/Info : Advanced Audio Codec\r\nFormat profile : LC\r\nCodec ID : 40\r\nDuration : 40mn 50s\r\nBit rate mode : Constant\r\nBit rate : 128 Kbps\r\nChannel(s) : 2 channels\r\nChannel positions : Front: L R\r\nSampling rate : 48.0 KHz\r\nFrame rate : 46.875 fps (1024 spf)\r\nCompression mode : Lossy\r\nStream size : 37.4 MiB (4%)\r\nDefault : Yes\r\nAlternate group : 1\r\n\r\nOther\r\nID : 3\r\nType : Time code\r\nFormat : QuickTime TC\r\nDuration : 40mn 50s\r\nTime code of first frame : 01:00:00:00\r\nTime code, striped : Yes\r\nLanguage : English\r\nDefault : No","torrent":{"xt":"urn:btih:c73cc941939bf382f64af383aff1508b60a759fc","amp;dn":"Teen+Mom+2+-+7x11+-+Turn+The+Page+720p+WEBRIP+%5BTANKTV%5D","amp;tr":["udp%3A%2F%2Ftracker.leechers-paradise.org%3A6969","udp%3A%2F%2Fzer0day.ch%3A1337","udp%3A%2F%2Fopen.demonii.com%3A1337","udp%3A%2F%2Ftracker.coppersurfer.tk%3A6969","udp%3A%2F%2Fexodus.desync.com%3A6969"],"infoHash":"c73cc941939bf382f64af383aff1508b60a759fc","infoHashBuffer":{"type":"Buffer","data":[199,60,201,65,147,155,243,130,246,74,243,131,175,241,80,139,96,167,89,252]},"announce":[],"urlList":[]}}